<svg width="167" height="24" viewBox="0 0 167 24" fill="none" xmlns="http://www.w3.org/2000/svg">
<path d="M20.8 14.56H21.28C20.86 16.42 19.96 18.46 18.49 19.84C14.62 23.5 8.14 23.17 4.51 19.42C1.09 15.91 0.07 10.33 2.47 6.01C3.4 4.36 4.72 3.04 6.49 2.02C8.26 1.03 10.27 0.519999 12.49 0.519999C17.02 0.519999 18.94 3.31 18.64 1.03H19.21L20.62 8.11L20.05 8.17C19.12 4.36 16.12 1.15 12.4 1.15C9.31 1.15 7.15 3.85 6.16 6.58C4.81 10.21 4.87 15.07 7.45 18.13C8.92 19.87 11.11 21.07 13.39 21.07C16.87 21.07 19.75 19.15 20.8 14.56ZM33.4248 19.93C33.4248 20.8 33.3348 22.45 35.0748 21.46V21.88C34.7148 22.06 34.0848 22.45 33.3348 22.45C31.5048 22.45 30.5448 21.61 30.4248 20.2C30.0648 20.8 29.3448 21.4 28.5648 21.85C27.7848 22.3 26.8248 22.51 25.7448 22.48C24.5148 22.45 23.4948 22.06 22.6848 21.37C21.8748 20.65 21.4848 19.66 21.4848 18.46C21.4848 16.48 22.5648 15.13 24.7548 14.38C28.4148 13.09 30.2448 12.07 30.2148 10.45C30.1848 9.67 30.0948 9.25 29.5848 8.8C29.5548 8.77 30.0348 8.68 30.5748 8.65C31.8048 8.56 33.0048 9.34 33.2748 10.54V10.57C33.3348 10.72 33.3348 10.93 33.3348 11.11L33.4248 19.93ZM27.2448 21.22C28.7748 21.28 30.2748 19.12 30.2748 19.12C30.2748 19.12 30.2448 16.39 30.2448 13.18C28.9848 13.96 27.8448 14.29 26.8848 14.74C26.1948 15.07 25.6848 15.55 25.3548 16.18C25.0248 16.81 24.8448 17.5 24.8748 18.28C24.9048 19.06 25.0848 19.75 25.4748 20.35C25.8948 20.92 26.4948 21.19 27.2448 21.22ZM43.4448 20.47C43.5348 20.68 43.6248 20.92 43.6848 21.13C42.0948 21.88 40.3548 22.63 38.6448 22.27C38.0448 22.15 37.4748 21.88 37.0548 21.43C36.3948 20.68 36.3648 19.57 36.3348 18.55C36.3348 15.13 36.3348 11.74 36.3348 8.35C32.7948 8.14 30.3048 8.02 27.3948 8.65C26.5248 8.83 25.6848 9.16 25.0548 9.76C24.0948 10.69 23.8848 12.25 24.5448 13.39C23.9148 13.36 23.3148 13.06 22.8948 12.58C22.4748 12.1 22.2048 11.44 22.3248 10.78C22.4448 10.06 22.8648 9.43 23.4348 8.98C24.0648 8.47 24.8448 8.17 25.6248 7.96C27.4248 7.51 29.2848 7.51 31.1448 7.42C32.9748 7.33 34.8948 7.6 36.5148 6.7C38.1348 5.83 39.4548 3.67 39.3948 1.84C39.5448 1.84 39.6948 1.84 39.8148 1.84C39.8148 3.76 39.8148 5.71 39.8448 7.63C40.8048 7.63 41.7948 7.66 42.7848 7.66C42.7848 7.87 42.7848 8.11 42.7848 8.32L39.8148 8.35C39.8148 11.68 39.8448 15.01 39.8448 18.37C39.8448 19.18 39.8748 20.11 40.5048 20.62C40.9248 20.95 41.4648 21.04 41.9748 20.98C42.5148 20.89 42.9948 20.68 43.4448 20.47ZM67.6584 7.57C68.9784 7.57 69.9084 8.41 69.9084 9.67C69.9084 10.96 68.8584 12.25 67.6884 12.43C67.8084 11.98 67.8684 11.53 67.8684 11.11C67.8684 10.09 67.5084 9.13 66.4884 9.25C64.4784 9.49 62.6184 13.3 61.2684 15.82C60.0084 18.19 58.7784 20.44 57.3984 21.61C56.5284 22.33 55.3884 22.63 54.3084 22.18C53.6184 21.91 53.0484 21.37 52.8684 20.65C52.8384 20.56 52.7184 20.23 52.7784 20.14C52.4184 20.74 51.6984 21.34 50.8884 21.79C50.1384 22.21 49.2084 22.45 48.0984 22.42C46.8984 22.39 45.8784 22 45.0384 21.31C44.2584 20.59 43.8684 19.63 43.8684 18.4C43.8684 16.45 44.9484 15.1 47.1384 14.35C50.7684 13.06 52.5684 12.07 52.5384 10.45C52.5384 9.43 52.0284 8.5 51.0384 8.17C50.0484 7.81 48.8184 7.99 48.0384 8.74C47.3784 9.43 47.1084 10.39 47.1084 11.32C47.1084 12.16 47.3484 13 47.7684 13.63C45.6084 13.72 44.4084 12.58 44.4084 11.2C44.4084 10.48 44.7684 9.79 45.2484 9.25C45.4884 9.01 45.7284 8.8 45.9984 8.62C47.7684 7.39 50.3784 7.21 52.3884 7.81C53.7984 8.2 55.2984 9.13 55.5984 10.57C55.6584 10.72 55.6884 10.93 55.6884 11.11L55.7484 19.87C55.5684 23.35 59.1084 18.16 60.5784 15.43C61.3584 13.99 62.1084 12.52 63.0384 11.14C63.6384 10.3 64.2684 9.55 64.9884 8.83C65.7084 8.14 66.6084 7.57 67.6584 7.57ZM49.6284 21.16C51.1284 21.22 52.5984 19.06 52.5984 19.06C52.5984 19.06 52.5984 16.36 52.5984 13.15C51.3384 13.93 50.1984 14.26 49.2384 14.71C48.5484 15.04 48.0384 15.52 47.7084 16.15C47.3784 16.75 47.2284 17.44 47.2284 18.22C47.2584 19 47.4684 19.69 47.8584 20.29C48.2484 20.86 48.8484 21.13 49.6284 21.16ZM59.7084 10.99C59.7084 9.37 59.9784 8.53 57.7584 8.53V8.35C57.7584 8.35 59.4684 7.33 60.9684 7.24C62.1084 7.18 63.1284 7.66 63.1584 9.58C63.1584 9.79 63.1584 9.79 63.1584 10.06C63.1284 10.12 62.7684 10.6 62.7384 10.63C61.8084 12.01 61.4484 12.76 60.6684 14.2C60.4284 14.68 60.0084 15.46 59.6784 16L59.7084 14.44V10.99ZM63.1584 18.58C63.1884 20.47 63.8484 21.43 65.1684 21.52V22C65.1684 22 61.9584 20.98 57.6984 22V21.52C57.9084 21.49 58.0884 21.46 58.2684 21.4C58.2984 21.4 58.3284 21.37 58.3584 21.37C58.5384 21.31 58.7184 21.19 58.8684 21.07C58.8684 21.07 58.8684 21.07 58.8984 21.04C59.1984 20.8 59.4084 20.41 59.5284 19.93C59.5284 19.87 59.5584 19.87 59.5584 19.84C60.0984 18.97 60.7284 18.01 61.2684 16.99C61.8384 15.97 62.4684 14.62 63.1584 13.48C63.1584 15.13 63.1584 14.35 63.1584 14.35C63.1884 16.63 63.1584 18.58 63.1584 18.58ZM83.857 21.43V21.88C83.467 22.06 82.867 22.45 82.117 22.45C80.257 22.45 79.297 21.61 79.177 20.17C78.817 20.77 78.097 21.4 77.287 21.85C76.507 22.27 75.547 22.51 74.467 22.48C73.237 22.45 72.217 22.06 71.377 21.34C70.567 20.62 70.177 19.66 70.177 18.43C70.177 16.45 71.257 15.07 73.477 14.32C77.167 13.03 78.967 12.01 78.967 10.39C78.937 9.37 78.427 8.41 77.437 8.08C76.417 7.72 75.187 7.9 74.407 8.68C73.717 9.34 73.477 10.33 73.477 11.26C73.477 12.13 73.687 12.94 74.137 13.6C71.947 13.69 70.717 12.55 70.717 11.17C70.717 10.42 71.077 9.7 71.587 9.19C71.797 8.92 72.067 8.71 72.337 8.53C74.107 7.3 76.747 7.12 78.787 7.72C80.227 8.11 81.727 9.04 82.027 10.48C82.087 10.63 82.117 10.87 82.117 11.05L82.177 19.9C82.177 20.8 82.117 22.45 83.857 21.43ZM78.997 19.09C78.997 19.09 78.997 16.36 78.997 13.12C77.737 13.9 76.567 14.23 75.607 14.71C74.917 15.04 74.377 15.52 74.047 16.15C73.717 16.75 73.567 17.47 73.567 18.25C73.597 19.03 73.807 19.72 74.197 20.32C74.617 20.92 75.217 21.16 75.997 21.19C77.527 21.28 78.997 19.09 78.997 19.09ZM96.4363 16.27H96.8863C96.5563 18.19 95.8363 19.69 94.6963 20.8C93.6163 21.85 92.2663 22.39 90.6163 22.39C88.5763 22.36 86.8963 21.64 85.5763 20.23C84.2263 18.82 83.5363 17.08 83.5363 14.98C83.5363 12.73 84.1663 10.87 85.4263 9.43C86.4763 8.2 87.8863 7.51 89.5963 7.27C90.0163 7.21 92.4763 6.79 94.9363 8.26C95.2363 8.44 95.4763 8.68 95.7163 8.92C96.1963 9.46 96.5563 10.18 96.5563 10.93C96.5563 12.31 95.3263 13.48 93.1363 13.39C93.5863 12.73 93.7963 11.89 93.7963 11.02C93.7963 10.09 93.5263 9.1 92.8663 8.41C92.8363 8.38 92.7763 8.35 92.7463 8.32C92.3863 8.02 91.8763 7.87 91.1263 7.87C90.3163 7.87 89.5663 8.23 88.9363 9.01C88.3063 9.73 87.8563 10.63 87.5563 11.68C87.2863 12.73 87.1363 13.84 87.1663 14.95C87.1963 16.63 87.6763 18.07 88.5463 19.27C89.4463 20.44 90.5863 21.01 91.9963 20.98C94.1563 20.89 95.6263 19.33 96.4363 16.27ZM105.861 20.47L106.101 21.13C105.741 21.31 105.231 21.55 104.511 21.82C100.611 23.14 98.6915 22.09 98.6915 18.61V8.23H96.6515V7.81C96.8315 7.75 101.721 7.78 101.721 1.72H102.201V7.54H105.171V8.23H102.201V18.28C102.201 19.36 102.381 20.14 102.771 20.59C103.161 21.01 103.731 21.1 104.511 20.89C104.751 20.8 105.201 20.77 105.861 20.47Z" fill="#2382FF"/>
<path d="M125.771 14.56H126.251C125.831 16.42 124.931 18.46 123.461 19.84C119.591 23.5 113.111 23.17 109.481 19.42C106.061 15.91 105.041 10.33 107.441 6.01C108.371 4.36 109.691 3.04 111.461 2.02C113.231 1.03 115.241 0.519999 117.461 0.519999C121.991 0.519999 123.911 3.31 123.611 1.03H124.181L125.591 8.11L125.021 8.17C124.091 4.36 121.091 1.15 117.371 1.15C114.281 1.15 112.121 3.85 111.131 6.58C109.781 10.21 109.841 15.07 112.421 18.13C113.891 19.87 116.081 21.07 118.361 21.07C121.841 21.07 124.721 19.15 125.771 14.56ZM150.451 7.57C151.771 7.57 152.701 8.41 152.701 9.67C152.701 10.96 151.651 12.25 150.481 12.43C150.601 11.98 150.661 11.53 150.661 11.11C150.661 10.09 150.301 9.13 149.281 9.25C147.271 9.49 145.411 13.3 144.061 15.82C142.801 18.19 141.571 20.44 140.191 21.61C139.321 22.33 138.181 22.63 137.101 22.18C136.411 21.91 135.841 21.37 135.661 20.65C135.631 20.56 135.511 20.23 135.571 20.14C135.211 20.74 134.491 21.34 133.681 21.79C132.931 22.21 132.001 22.45 130.891 22.42C129.691 22.39 128.671 22 127.831 21.31C127.051 20.59 126.661 19.63 126.661 18.4C126.661 16.45 127.741 15.1 129.931 14.35C133.561 13.06 135.361 12.07 135.331 10.45C135.331 9.43 134.821 8.5 133.831 8.17C132.841 7.81 131.611 7.99 130.831 8.74C130.171 9.43 129.901 10.39 129.901 11.32C129.901 12.16 130.141 13 130.561 13.63C128.401 13.72 127.201 12.58 127.201 11.2C127.201 10.48 127.561 9.79 128.041 9.25C128.281 9.01 128.521 8.8 128.791 8.62C130.561 7.39 133.171 7.21 135.181 7.81C136.591 8.2 138.091 9.13 138.391 10.57C138.451 10.72 138.481 10.93 138.481 11.11L138.541 19.87C138.361 23.35 141.901 18.16 143.371 15.43C144.151 13.99 144.901 12.52 145.831 11.14C146.431 10.3 147.061 9.55 147.781 8.83C148.501 8.14 149.401 7.57 150.451 7.57ZM132.421 21.16C133.921 21.22 135.391 19.06 135.391 19.06C135.391 19.06 135.391 16.36 135.391 13.15C134.131 13.93 132.991 14.26 132.031 14.71C131.341 15.04 130.831 15.52 130.501 16.15C130.171 16.75 130.021 17.44 130.021 18.22C130.051 19 130.261 19.69 130.651 20.29C131.041 20.86 131.641 21.13 132.421 21.16ZM142.501 10.99C142.501 9.37 142.771 8.53 140.551 8.53V8.35C140.551 8.35 142.261 7.33 143.761 7.24C144.901 7.18 145.921 7.66 145.951 9.58C145.951 9.79 145.951 9.79 145.951 10.06C145.921 10.12 145.561 10.6 145.531 10.63C144.601 12.01 144.241 12.76 143.461 14.2C143.221 14.68 142.801 15.46 142.471 16L142.501 14.44V10.99ZM145.951 18.58C145.981 20.47 146.641 21.43 147.961 21.52V22C147.961 22 144.751 20.98 140.491 22V21.52C140.701 21.49 140.881 21.46 141.061 21.4C141.091 21.4 141.121 21.37 141.151 21.37C141.331 21.31 141.511 21.19 141.661 21.07C141.661 21.07 141.661 21.07 141.691 21.04C141.991 20.8 142.201 20.41 142.321 19.93C142.321 19.87 142.351 19.87 142.351 19.84C142.891 18.97 143.521 18.01 144.061 16.99C144.631 15.97 145.261 14.62 145.951 13.48C145.951 15.13 145.951 14.35 145.951 14.35C145.981 16.63 145.951 18.58 145.951 18.58ZM164.226 19.57C165.066 18.7 165.696 17.59 166.116 16.21H166.566C166.176 18.16 165.336 19.66 164.076 20.74C162.816 21.85 161.316 22.39 159.576 22.39C157.656 22.39 156.036 21.67 154.686 20.23C153.366 18.79 152.706 17.05 152.706 14.92C152.706 12.73 153.366 10.9 154.686 9.43C156.006 7.93 157.746 7.18 159.876 7.18C161.976 7.18 163.596 7.81 164.796 9.1C165.726 10.09 166.326 11.32 166.596 12.82C166.746 13.54 166.176 14.2 165.456 14.2H157.506C156.846 14.2 156.306 14.77 156.336 15.46C156.456 16.78 156.846 17.95 157.596 18.94C158.526 20.26 159.726 20.92 161.136 20.86C162.366 20.83 163.416 20.41 164.226 19.57ZM156.486 12.73C156.426 13.09 156.366 14.05 156.396 13.99C156.426 13.9 156.576 13.75 157.086 13.63C157.746 13.51 163.356 13.36 162.816 11.17C162.606 10.33 162.276 9.58 161.736 8.86C161.196 8.14 160.536 7.78 159.786 7.81C159.216 7.84 158.706 8.05 158.226 8.47C157.806 8.86 157.446 9.34 157.206 9.97C156.936 10.57 156.756 11.17 156.636 11.77C156.576 12.1 156.486 12.73 156.486 12.73Z" fill="#004197"/>
</svg>
