<svg width="161" height="47" viewBox="0 0 161 47" fill="none" xmlns="http://www.w3.org/2000/svg">
<path d="M19.4922 27.7109C19.4922 29.3516 18.9062 30.7578 17.7344 31.9297C16.0417 33.5703 13.6328 34.3906 10.5078 34.3906C7.82552 34.3906 5.49479 33.7266 3.51562 32.3984C3.51562 32.8932 3.48958 33.2578 3.4375 33.4922C3.30729 33.8828 2.91667 34.0781 2.26562 34.0781V25.9141H3.59375C3.64583 26.7474 3.77604 27.5286 3.98438 28.2578C4.84375 31.6172 6.92708 33.2969 10.2344 33.2969C11.1458 33.2969 11.9922 33.1276 12.7734 32.7891C14.4401 32.0599 15.2734 30.7839 15.2734 28.9609C15.2734 28.3099 15.1302 27.7109 14.8438 27.1641C14.2448 26.0703 12.7995 24.9766 10.5078 23.8828C7.98177 22.7109 6.52344 22.0078 6.13281 21.7734C3.6849 20.3672 2.46094 18.5703 2.46094 16.3828C2.46094 14.8984 2.99479 13.6224 4.0625 12.5547C5.625 10.9661 7.86458 10.1719 10.7812 10.1719C13.125 10.1719 15.2865 10.6797 17.2656 11.6953C17.2656 11.4609 17.2786 11.2526 17.3047 11.0703C17.4089 10.6016 17.8125 10.3672 18.5156 10.3672V17.2812H17.1875C17.1875 15.849 16.8359 14.625 16.1328 13.6094C15.013 12.0729 13.3724 11.3047 11.2109 11.3047C10.4557 11.3047 9.7526 11.4219 9.10156 11.6562C7.51302 12.2812 6.71875 13.4141 6.71875 15.0547C6.71875 15.7057 6.86198 16.2917 7.14844 16.8125C7.72135 17.9062 9.14062 18.974 11.4062 20.0156C13.9323 21.1875 15.4036 21.9036 15.8203 22.1641C18.2682 23.5964 19.4922 25.4453 19.4922 27.7109ZM29.7656 18.2969H27.0703L31.5625 30.9922L34.5312 21.8516L32.9688 17.3203H39.5703V18.2969H36.9922L41.2891 30.9531L45.3516 18.2969H42.7344V17.3203H48.4375C48.4375 17.4766 48.4245 17.6198 48.3984 17.75C48.3203 18.1146 48.0208 18.2969 47.5 18.2969C47.3698 18.2969 47.2396 18.3099 47.1094 18.3359C46.6927 18.4141 46.3542 18.8307 46.0938 19.5859L41.2891 34.1953H40.3906C39.9219 34.1953 39.5443 34.1302 39.2578 34C38.8411 33.7656 38.3724 32.9062 37.8516 31.4219L35.1172 23.5312L31.6406 34.1953H30.625C30.2083 34.1953 29.8698 34.1432 29.6094 34.0391C29.0625 33.8047 28.5156 32.9323 27.9688 31.4219L23.2031 18.2969H21.5234V17.3203H29.7656V18.2969ZM57.8125 33.0234C57.9948 33.0234 58.151 33.0365 58.2812 33.0625C58.6198 33.1146 58.7891 33.4271 58.7891 34H49.5312V33.0234C50.1823 33.0234 50.6901 32.9844 51.0547 32.9062C51.888 32.6719 52.3047 31.9688 52.3047 30.7969V18.2969H49.5312V17.3203H56.0547V33.0234H57.8125ZM56.4844 11.8516C56.4844 12.2422 56.4062 12.6068 56.25 12.9453C55.8073 13.8307 55.0651 14.2734 54.0234 14.2734C53.6589 14.2734 53.3073 14.1953 52.9688 14.0391C52.0573 13.6224 51.6016 12.8932 51.6016 11.8516C51.6016 11.4609 51.6927 11.0833 51.875 10.7188C52.3177 9.83333 53.0339 9.39062 54.0234 9.39062C54.4141 9.39062 54.7917 9.48177 55.1562 9.66406C56.0417 10.1328 56.4844 10.862 56.4844 11.8516ZM70.3516 33.0234C70.5078 33.0234 70.651 33.0365 70.7812 33.0625C71.1198 33.1406 71.2891 33.4531 71.2891 34H60.8984V33.0234C61.5495 33.0234 62.0703 32.9844 62.4609 32.9062C63.3724 32.6719 63.8281 31.9688 63.8281 30.7969V18.3359H60.8984V17.3203H63.8281V16.7344C63.8281 14.6771 64.2318 12.9583 65.0391 11.5781C66.2891 9.46875 68.2682 8.41406 70.9766 8.41406C72.0964 8.41406 73.0859 8.59635 73.9453 8.96094C75.2734 9.5599 75.9375 10.3802 75.9375 11.4219C75.9375 11.5781 75.9115 11.7474 75.8594 11.9297C75.625 12.6849 75.0391 13.0625 74.1016 13.0625C73.7109 13.0625 73.3464 12.9062 73.0078 12.5938C72.8516 12.4375 72.526 11.8516 72.0312 10.8359C71.5365 9.8724 70.9245 9.39062 70.1953 9.39062C69.7786 9.39062 69.4141 9.49479 69.1016 9.70312C68.0859 10.4062 67.5781 12.8672 67.5781 17.0859V17.3203H72.0312V18.3359H67.5781V33.0234H70.3516ZM73.0078 18.375V17.3984H75.7422V13.6875L79.4922 12.8672V17.3984H85.1562V18.375H79.4922V30.25C79.5182 32.2031 80.1953 33.2057 81.5234 33.2578C82.8255 33.2318 83.763 32.0599 84.3359 29.7422L85.3906 29.9375C85.3125 30.3542 85.2083 30.7578 85.0781 31.1484C84.349 33.3359 82.8776 34.4297 80.6641 34.4297C80.4557 34.4297 80.2344 34.4167 80 34.3906C77.1615 34.1302 75.7422 32.2943 75.7422 28.8828V18.375H73.0078Z" fill="#2382FF"/>
<path d="M105.078 27.7109C105.078 29.3516 104.492 30.7578 103.32 31.9297C101.628 33.5703 99.2188 34.3906 96.0938 34.3906C93.4115 34.3906 91.0807 33.7266 89.1016 32.3984C89.1016 32.8932 89.0755 33.2578 89.0234 33.4922C88.8932 33.8828 88.5026 34.0781 87.8516 34.0781V25.9141H89.1797C89.2318 26.7474 89.362 27.5286 89.5703 28.2578C90.4297 31.6172 92.513 33.2969 95.8203 33.2969C96.7318 33.2969 97.5781 33.1276 98.3594 32.7891C100.026 32.0599 100.859 30.7839 100.859 28.9609C100.859 28.3099 100.716 27.7109 100.43 27.1641C99.8307 26.0703 98.3854 24.9766 96.0938 23.8828C93.5677 22.7109 92.1094 22.0078 91.7188 21.7734C89.2708 20.3672 88.0469 18.5703 88.0469 16.3828C88.0469 14.8984 88.5807 13.6224 89.6484 12.5547C91.2109 10.9661 93.4505 10.1719 96.3672 10.1719C98.7109 10.1719 100.872 10.6797 102.852 11.6953C102.852 11.4609 102.865 11.2526 102.891 11.0703C102.995 10.6016 103.398 10.3672 104.102 10.3672V17.2812H102.773C102.773 15.849 102.422 14.625 101.719 13.6094C100.599 12.0729 98.9583 11.3047 96.7969 11.3047C96.0417 11.3047 95.3385 11.4219 94.6875 11.6562C93.099 12.2812 92.3047 13.4141 92.3047 15.0547C92.3047 15.7057 92.4479 16.2917 92.7344 16.8125C93.3073 17.9062 94.7266 18.974 96.9922 20.0156C99.5182 21.1875 100.99 21.9036 101.406 22.1641C103.854 23.5964 105.078 25.4453 105.078 27.7109ZM116.406 33.0234C116.589 33.0234 116.745 33.0365 116.875 33.0625C117.214 33.1146 117.383 33.4271 117.383 34H107.812V33.0234C108.49 33.0234 109.023 32.9714 109.414 32.8672C110.326 32.6589 110.781 31.9688 110.781 30.7969V9.58594H107.812V8.60938H114.531V25.5625L122.266 18.2969H119.375V17.3203H126.016C126.016 17.4505 126.003 17.5807 125.977 17.7109C125.924 18.1016 125.599 18.2969 125 18.2969C124.766 18.2969 124.531 18.3229 124.297 18.375C123.854 18.4792 123.177 18.9609 122.266 19.8203L118.906 22.9844L125.195 33.0234H126.25C126.432 33.0234 126.589 33.0365 126.719 33.0625C127.057 33.1146 127.227 33.4271 127.227 34H121.523L116.328 25.4453L114.531 27.125V33.0234H116.406ZM136.211 33.0234C136.393 33.0234 136.549 33.0365 136.68 33.0625C137.018 33.1146 137.188 33.4271 137.188 34H127.93V33.0234C128.581 33.0234 129.089 32.9844 129.453 32.9062C130.286 32.6719 130.703 31.9688 130.703 30.7969V18.2969H127.93V17.3203H134.453V33.0234H136.211ZM134.883 11.8516C134.883 12.2422 134.805 12.6068 134.648 12.9453C134.206 13.8307 133.464 14.2734 132.422 14.2734C132.057 14.2734 131.706 14.1953 131.367 14.0391C130.456 13.6224 130 12.8932 130 11.8516C130 11.4609 130.091 11.0833 130.273 10.7188C130.716 9.83333 131.432 9.39062 132.422 9.39062C132.812 9.39062 133.19 9.48177 133.555 9.66406C134.44 10.1328 134.883 10.862 134.883 11.8516ZM147.031 33.0234C147.214 33.0234 147.37 33.0365 147.5 33.0625C147.839 33.1146 148.008 33.4271 148.008 34H139.18V33.0234C139.831 33.0234 140.339 32.9714 140.703 32.8672C141.458 32.6589 141.836 31.9688 141.836 30.7969V18.2969H139.18V17.3203H145.352L145.547 20.8359C145.807 20.237 146.146 19.6771 146.562 19.1562C147.865 17.6198 149.479 16.8516 151.406 16.8516C152.318 16.8516 153.151 17.0599 153.906 17.4766C155.833 18.4922 156.797 20.3932 156.797 23.1797V33.0234H158.477C158.659 33.0234 158.815 33.0365 158.945 33.0625C159.284 33.1146 159.453 33.4271 159.453 34H150.547V33.0234C151.198 33.0234 151.706 32.9714 152.07 32.8672C152.695 32.6328 153.008 31.9427 153.008 30.7969V22.6719C153.008 22.099 152.943 21.5521 152.812 21.0312C152.37 19.4688 151.367 18.6875 149.805 18.6875C149.232 18.6875 148.672 18.8438 148.125 19.1562C146.641 20.0156 145.807 21.5 145.625 23.6094L145.586 33.0234H147.031Z" fill="#043E8A"/>
</svg>
